<?xml version="1.0" standalone="no"?>
<!DOCTYPE svg PUBLIC "-//W3C//DTD SVG 20010904//EN"
 "http://www.w3.org/TR/2001/REC-SVG-20010904/DTD/svg10.dtd">
<svg version="1.0" xmlns="http://www.w3.org/2000/svg"
 width="703.000000pt" height="356.000000pt" viewBox="0 0 703.000000 356.000000"
 preserveAspectRatio="xMidYMid meet">

<g transform="translate(0.000000,356.000000) scale(0.100000,-0.100000)"
fill="#000000" stroke="none">
<path d="M93 3357 c16 -24 17 -81 17 -672 0 -578 -2 -648 -16 -670 l-16 -25
226 0 226 0 0 114 0 115 -35 -15 c-20 -8 -67 -14 -110 -14 l-75 0 0 535 c0
456 2 540 15 565 17 34 27 28 -115 60 -52 12 -104 24 -115 27 -18 5 -18 5 -2
-20z"/>
<path d="M6815 3351 l-120 -27 2 -31 c2 -23 -20 -78 -78 -195 -44 -90 -83
-166 -87 -170 -4 -4 -45 56 -91 134 -66 114 -82 148 -77 170 7 34 8 34 -137
11 -102 -16 -108 -18 -100 -38 4 -11 9 -275 10 -588 3 -495 1 -571 -12 -597
l-16 -30 131 0 131 0 -16 30 c-13 25 -15 85 -13 425 l3 395 89 -145 c49 -80
92 -145 96 -145 3 0 46 82 95 181 l90 182 3 -432 c2 -372 0 -436 -13 -461
l-16 -30 131 0 131 0 -16 30 c-13 25 -15 115 -15 670 0 573 2 643 16 665 9 14
12 25 8 24 -5 -1 -63 -13 -129 -28z"/>
<path d="M654 3241 c14 -26 16 -102 16 -611 0 -501 -2 -585 -15 -610 l-16 -30
142 0 142 0 -22 24 -22 24 1 572 c0 351 4 579 10 590 6 10 10 21 10 23 0 3
-51 12 -112 21 -62 10 -121 20 -131 23 -17 5 -18 3 -3 -26z"/>
<path d="M5935 3197 c-77 -11 -141 -21 -143 -22 -1 -1 2 -15 8 -31 9 -23 4
-50 -31 -166 -23 -76 -45 -136 -48 -132 -3 3 -27 63 -52 132 -44 119 -46 129
-32 156 l15 28 -39 -6 c-21 -3 -78 -8 -128 -11 -129 -9 -133 -11 -102 -43 14
-15 73 -139 131 -275 l107 -248 -3 -282 c-2 -155 -7 -290 -12 -299 -8 -17 2
-18 124 -18 l132 0 -16 25 c-14 21 -16 63 -16 300 l0 275 105 286 c57 158 116
302 130 320 14 19 22 33 18 33 -4 -1 -71 -11 -148 -22z"/>
<path d="M1015 3180 c13 -25 15 -106 15 -585 0 -479 -2 -560 -15 -585 l-16
-30 131 0 131 0 -16 30 c-12 23 -15 69 -15 223 l0 194 78 5 c102 6 169 36 227
100 65 72 78 125 73 296 -3 130 -5 140 -33 191 -35 63 -99 115 -163 131 -30 7
-385 60 -410 60 -1 0 4 -13 13 -30z m338 -222 c44 -17 57 -54 57 -162 0 -91
-1 -97 -29 -128 -26 -29 -34 -32 -87 -33 l-59 0 -3 174 -2 173 47 -6 c27 -4
61 -12 76 -18z"/>
<path d="M1886 3096 c-80 -30 -164 -123 -186 -208 -7 -26 -10 -153 -8 -361 l3
-322 27 -50 c32 -60 77 -105 138 -137 37 -19 60 -23 125 -22 98 0 161 28 224
100 69 78 72 104 69 476 -3 305 -4 326 -24 369 -46 99 -140 159 -259 166 -45
2 -84 -2 -109 -11z m143 -200 c15 -8 32 -26 39 -41 15 -34 17 -587 2 -616 -28
-50 -117 -61 -156 -18 -18 19 -19 43 -22 303 -2 154 0 296 3 314 4 23 16 39
38 52 38 24 59 25 96 6z"/>
<path d="M4977 3086 c-94 -35 -174 -123 -197 -216 -7 -30 -10 -151 -8 -355 3
-299 4 -312 26 -356 30 -61 81 -113 145 -146 70 -37 190 -39 253 -6 67 36 101
70 133 135 l31 61 0 199 0 198 -135 0 -135 0 0 -100 0 -100 35 14 35 15 0
-100 c0 -108 -10 -131 -65 -145 -31 -8 -82 12 -95 37 -6 10 -10 145 -10 319
l0 302 29 29 c33 33 50 35 91 14 41 -21 53 -49 45 -101 l-6 -44 120 0 c67 0
121 3 121 8 -1 4 -7 18 -15 32 -8 14 -14 41 -15 60 -1 82 -82 194 -167 232
-58 26 -166 33 -216 14z"/>
<path d="M2339 3056 c20 -21 43 -106 138 -508 80 -342 112 -495 109 -525 l-4
-43 129 0 128 0 -6 34 c-7 47 210 959 239 999 11 16 18 30 16 31 -1 2 -58 6
-125 10 l-121 7 5 -38 c3 -26 -16 -129 -62 -328 -37 -159 -70 -296 -74 -303
-4 -7 -39 131 -77 305 -52 233 -69 324 -62 342 5 13 7 25 6 26 -2 1 -61 5
-133 9 l-130 7 24 -25z"/>
<path d="M4293 3063 c-46 -2 -83 -6 -83 -8 0 -2 5 -15 11 -28 9 -20 3 -48 -30
-157 -23 -74 -43 -136 -45 -138 -4 -3 -23 44 -72 182 -23 65 -26 83 -17 107
l11 29 -146 0 -146 0 27 -28 c17 -18 66 -126 137 -300 l110 -273 0 -202 c-1
-156 -4 -208 -15 -227 -8 -14 -14 -28 -15 -32 0 -5 59 -8 131 -8 l131 0 -16
25 c-13 20 -16 59 -16 244 l0 219 100 256 c113 291 121 309 152 330 24 17 15
18 -209 9z"/>
<path d="M3337 3036 c-81 -30 -152 -107 -182 -196 -14 -42 -16 -93 -13 -342
l3 -293 27 -50 c32 -60 77 -105 138 -137 37 -19 60 -23 125 -22 98 0 161 28
224 100 68 77 73 107 69 446 -3 274 -4 296 -24 339 -28 59 -78 109 -139 138
-61 29 -174 37 -228 17z m144 -201 c16 -9 34 -27 39 -41 6 -14 10 -137 10
-274 0 -137 -4 -260 -10 -274 -10 -28 -57 -56 -94 -56 -14 0 -38 11 -53 24
l-28 24 -3 269 c-2 288 0 306 48 330 33 17 55 16 91 -2z"/>
<path d="M103 1692 c15 -17 17 -56 17 -352 0 -296 -2 -335 -17 -352 -16 -17
92 -18 3422 -18 3330 0 3438 1 3422 18 -15 17 -17 56 -17 348 0 282 2 333 16
352 l15 22 -3437 0 c-3329 0 -3437 -1 -3421 -18z m477 -185 l0 -43 -65 4 -65
4 0 -41 0 -41 45 0 45 0 0 -48 0 -47 -46 4 -46 3 3 -91 4 -91 -45 0 -45 0 0
215 0 215 108 0 107 0 0 -43z m575 -172 l0 -215 -45 0 -45 0 0 215 0 215 45 0
45 0 0 -215z m663 195 c33 -20 62 -71 62 -110 0 -17 -6 -20 -44 -20 -41 0 -45
2 -48 26 -2 15 -11 32 -21 38 -34 20 -47 -16 -47 -130 0 -107 9 -130 47 -122
24 4 32 68 8 68 -13 0 -16 8 -13 38 l3 37 55 0 55 0 0 -71 c0 -43 -6 -82 -15
-98 -15 -28 -76 -66 -106 -66 -31 0 -93 43 -109 76 -21 44 -21 243 0 284 35
68 108 89 173 50z m632 -60 l0 -80 36 0 36 0 -4 80 -3 80 45 0 45 0 0 -215 0
-215 -46 0 -45 0 4 90 4 90 -37 0 -37 0 4 -90 3 -90 -50 0 -50 0 0 215 0 215
48 0 47 0 0 -80z m880 36 l0 -44 -41 5 -40 6 3 -177 3 -176 -47 0 -48 0 0 176
0 177 -40 -6 -40 -5 0 44 0 44 125 0 125 0 0 -44z m1197 27 c29 -19 53 -69 53
-108 0 -25 -3 -26 -42 -23 -38 3 -43 6 -43 28 0 20 -5 25 -25 25 l-25 0 -3
-117 -3 -118 32 0 c29 0 31 2 27 30 -4 29 -4 30 39 30 39 0 43 -2 43 -25 0
-64 -60 -135 -115 -135 -34 0 -85 39 -101 75 -9 23 -14 71 -14 145 0 156 29
207 118 209 18 1 44 -7 59 -16z m625 -154 l-3 -172 45 5 46 6 0 -49 0 -49 -87
0 -88 0 0 215 0 215 45 0 45 0 -3 -171z m650 15 c-4 -165 2 -188 42 -182 20 3
21 8 21 171 l0 167 50 0 50 0 -3 -172 c-3 -194 -8 -208 -76 -242 -32 -16 -44
-17 -76 -7 -21 6 -50 25 -64 42 -26 30 -26 33 -26 189 0 87 -3 165 -6 174 -5
13 2 16 42 16 l49 0 -3 -156z m836 140 c47 -33 66 -112 41 -168 -9 -19 -9 -29
-1 -39 22 -26 24 -90 5 -127 -30 -59 -74 -80 -162 -80 l-76 0 0 215 0 215 85
0 c61 0 92 -4 108 -16z"/>
<path d="M6530 1430 c0 -41 1 -41 33 -38 29 3 32 6 32 38 0 32 -3 35 -32 38
-32 3 -33 3 -33 -38z"/>
<path d="M6530 1260 c0 -48 1 -50 28 -50 35 0 52 16 52 50 0 34 -17 50 -52 50
-27 0 -28 -2 -28 -50z"/>
<path d="M383 712 l-41 -3 -21 -67 c-11 -37 -28 -95 -37 -129 -10 -35 -20 -63
-24 -63 -3 0 -12 21 -18 48 -7 26 -25 84 -39 130 l-25 82 -49 0 -49 0 0 -330
0 -330 28 0 c73 1 72 -1 72 143 0 72 3 127 7 123 4 -4 14 -30 23 -59 15 -50
17 -52 50 -52 34 0 35 2 55 65 l20 65 3 -127 3 -128 49 0 50 0 0 314 c0 173
-3 316 -7 318 -5 2 -27 2 -50 0z"/>
<path d="M742 701 c-3 -9 -23 -68 -43 -131 l-36 -115 -40 125 -40 125 -52 3
-51 3 0 -310 c0 -347 -7 -318 73 -305 l37 7 1 121 1 121 20 -58 c19 -56 21
-58 52 -55 28 3 33 9 53 63 l22 60 0 -123 1 -122 43 6 c71 10 70 9 63 67 -3
28 -6 161 -6 295 l0 242 -46 -2 c-31 -1 -48 -6 -52 -17z"/>
<path d="M957 698 c-14 -56 -99 -569 -96 -572 2 -2 25 -2 51 1 42 5 48 8 52
34 19 95 15 89 50 89 32 0 33 -2 42 -52 l9 -53 54 -3 54 -3 -7 33 c-4 18 -27
143 -51 278 -25 135 -47 251 -50 258 -3 7 -23 12 -54 12 -42 0 -50 -3 -54 -22z
m66 -290 c5 -39 4 -48 -8 -48 -16 0 -21 53 -9 85 9 21 10 18 17 -37z"/>
<path d="M1478 714 c-5 -4 -8 -130 -8 -281 l0 -273 48 1 c140 1 193 33 212
126 12 56 7 100 -16 146 -13 23 -13 31 1 57 35 67 10 181 -46 211 -26 14 -181
25 -191 13z m140 -116 c26 -26 8 -88 -25 -88 -9 0 -13 16 -13 50 0 51 12 64
38 38z m10 -251 c3 -49 -9 -77 -34 -77 -11 0 -14 17 -14 66 0 62 1 65 23 62
19 -3 22 -10 25 -51z"/>
<path d="M1832 700 c-54 -33 -62 -67 -62 -260 0 -127 4 -180 15 -206 35 -84
187 -84 233 0 14 26 17 60 17 216 0 134 -4 191 -13 208 -34 59 -128 80 -190
42z m96 -246 c2 -139 0 -163 -14 -175 -14 -11 -18 -11 -30 6 -10 14 -14 54
-14 151 0 143 9 188 38 182 15 -3 17 -20 20 -164z"/>
<path d="M2050 711 c0 -5 21 -63 46 -130 l46 -122 -45 -122 c-25 -67 -49 -130
-53 -140 -6 -16 -1 -18 52 -15 l58 3 19 63 c10 34 22 62 25 62 4 0 16 -28 27
-63 l20 -62 49 -3 c27 -2 52 0 56 5 4 4 -16 68 -45 141 l-53 133 49 121 c27
67 49 126 49 130 0 5 -26 8 -57 6 l-58 -3 -15 -52 c-8 -29 -17 -53 -21 -53 -3
0 -13 25 -23 55 l-17 55 -55 0 c-29 0 -54 -4 -54 -9z"/>
<path d="M2370 455 l0 -265 50 0 50 0 0 265 0 265 -50 0 -50 0 0 -265z"/>
<path d="M2520 455 l0 -265 50 0 49 0 3 112 3 113 44 -112 44 -113 50 0 c41 0
48 3 43 16 -3 9 -6 128 -6 265 l0 250 -47 -3 -48 -3 -5 -110 -5 -110 -43 113
-44 112 -44 0 -44 0 0 -265z"/>
<path d="M2925 710 c-11 -4 -31 -20 -45 -35 -25 -26 -25 -29 -28 -221 l-3
-195 34 -34 c22 -22 46 -36 64 -37 132 -7 163 30 163 195 l0 107 -75 0 -75 0
0 -50 c0 -47 2 -50 26 -50 24 0 25 -2 22 -47 -3 -44 -5 -48 -28 -48 l-25 0 -2
150 c-3 158 3 188 34 169 10 -6 19 -21 21 -33 4 -23 8 -24 65 -15 31 6 37 11
37 31 0 43 -31 94 -66 109 -37 15 -88 17 -119 4z"/>
<path d="M3440 456 l0 -266 50 0 49 0 3 88 c2 48 7 87 12 87 4 0 22 -38 40
-85 l31 -85 54 -3 c41 -2 52 0 49 10 -3 7 -29 77 -59 156 l-53 143 52 105 c29
57 52 107 52 110 0 3 -24 4 -52 2 l-53 -3 -37 -75 -37 -74 -3 74 -3 75 -47 3
-48 3 0 -265z"/>
<path d="M3740 455 l0 -265 50 0 50 0 0 265 0 265 -50 0 -50 0 0 -265z"/>
<path d="M3953 704 c-55 -27 -63 -60 -63 -264 l0 -182 34 -34 c30 -30 40 -34
85 -34 87 0 124 30 137 109 6 40 6 41 -22 41 -16 0 -39 3 -50 6 -17 5 -24 0
-32 -26 -8 -22 -17 -31 -29 -28 -16 3 -18 19 -20 153 -3 158 3 188 34 169 10
-6 19 -21 21 -33 4 -24 12 -25 65 -10 42 11 47 30 21 84 -28 59 -114 82 -181
49z"/>
<path d="M4180 716 c-3 -2 -4 -122 -2 -265 l3 -261 49 0 49 0 3 88 c2 48 7 87
12 87 5 0 23 -39 40 -87 l31 -88 53 0 c47 0 53 2 48 17 -54 138 -106 284 -106
292 0 6 23 56 50 111 28 55 50 102 50 105 0 3 -24 5 -54 5 l-54 0 -33 -77 -34
-77 -5 75 -5 74 -45 3 c-25 2 -48 1 -50 -2z"/>
<path d="M4480 458 l0 -265 63 -7 c96 -10 154 12 181 68 22 47 21 143 -2 180
-17 29 -17 31 1 65 34 65 7 174 -50 201 -15 7 -65 15 -110 18 l-83 5 0 -265z
m151 131 c15 -29 -3 -69 -31 -69 -17 0 -20 7 -20 45 0 38 3 45 20 45 10 0 24
-10 31 -21z m3 -195 c3 -9 6 -28 6 -44 0 -44 -10 -60 -36 -60 -23 0 -24 3 -24
60 0 57 1 60 24 60 13 0 27 -7 30 -16z"/>
<path d="M4843 704 c-55 -27 -63 -60 -63 -264 0 -154 3 -186 17 -211 47 -80
188 -77 226 4 23 48 25 369 2 423 -24 58 -113 82 -182 48z m85 -96 c18 -18 17
-298 -2 -323 -12 -16 -16 -17 -30 -6 -13 11 -16 38 -16 165 0 143 6 176 30
176 3 0 11 -5 18 -12z"/>
<path d="M5058 715 c-3 -3 16 -64 42 -134 l48 -129 -49 -132 c-27 -73 -49
-136 -49 -141 0 -5 24 -9 54 -9 l54 0 22 65 c12 36 23 65 25 65 2 0 14 -31 25
-70 l21 -70 54 0 c30 0 55 3 55 7 0 3 -23 69 -51 145 l-51 139 50 130 c55 143
55 142 -19 137 -42 -3 -45 -5 -59 -48 -9 -25 -18 -52 -21 -60 -4 -9 -14 10
-25 45 l-19 60 -50 3 c-28 2 -53 0 -57 -3z"/>
<path d="M5380 442 c0 -309 -4 -292 66 -292 l34 0 -2 283 -3 282 -47 3 -48 3
0 -279z"/>
<path d="M5527 714 c-4 -4 -7 -132 -7 -285 l0 -277 45 -6 c25 -4 49 -4 55 -1
6 4 10 56 11 123 l0 117 40 -115 c22 -63 48 -121 56 -127 9 -7 32 -13 50 -13
l33 0 0 295 0 295 -50 0 -49 0 -3 -127 -3 -128 -45 125 -45 125 -40 3 c-23 2
-44 0 -48 -4z"/>
<path d="M5935 710 c-32 -13 -62 -52 -74 -95 -14 -52 -14 -348 0 -399 32 -116
187 -142 239 -40 10 20 16 68 18 150 l4 121 -32 7 c-18 3 -52 6 -76 6 l-44 0
0 -55 c0 -48 2 -55 20 -55 18 0 20 -7 20 -59 0 -62 -7 -75 -34 -65 -14 6 -16
29 -14 193 3 178 4 186 23 186 15 0 21 -8 23 -32 3 -35 12 -38 77 -24 28 6 30
9 26 46 -4 54 -25 92 -61 110 -31 16 -83 19 -115 5z"/>
<path d="M6478 712 l-38 -3 0 -313 0 -313 46 -7 c25 -3 50 -3 55 0 5 3 9 52 9
110 0 57 4 104 8 104 4 0 23 -52 41 -115 30 -103 36 -115 56 -115 12 0 37 -3
55 -7 30 -5 33 -4 26 13 -4 10 -31 101 -61 201 l-53 182 49 126 c27 70 49 128
49 131 0 2 -24 4 -53 4 l-52 0 -32 -82 -32 -83 0 81 c-1 91 -2 92 -73 86z"/>
<path d="M6817 672 c-36 -37 -37 -40 -37 -112 l0 -74 35 34 35 34 0 -256 0
-255 38 -7 c20 -3 43 -6 50 -6 9 0 12 75 12 340 l0 340 -48 0 c-42 0 -52 -4
-85 -38z"/>
<path d="M3238 493 l-36 -35 40 -36 39 -35 36 36 c40 39 38 48 -17 87 l-26 19
-36 -36z"/>
<path d="M1266 461 l-27 -28 31 -27 c17 -14 35 -26 39 -26 4 0 20 14 36 30
l29 31 -29 24 c-38 31 -46 31 -79 -4z"/>
<path d="M6261 449 l-34 -31 36 -36 35 -35 42 33 41 33 -32 33 c-18 19 -38 34
-43 34 -6 0 -26 -14 -45 -31z"/>
</g>
</svg>
