<?xml version="1.0" standalone="no"?>
<!DOCTYPE svg PUBLIC "-//W3C//DTD SVG 20010904//EN"
 "http://www.w3.org/TR/2001/REC-SVG-20010904/DTD/svg10.dtd">
<svg version="1.0" xmlns="http://www.w3.org/2000/svg"
 width="1825.000000pt" height="420.000000pt" viewBox="0 0 1825.000000 420.000000"
 preserveAspectRatio="xMidYMid meet">

<g transform="translate(0.000000,420.000000) scale(0.100000,-0.100000)"
fill="#000000" stroke="none">
<path d="M200 3932 c0 -3 18 -38 40 -78 l40 -73 0 -1647 0 -1647 -40 -73 c-22
-40 -40 -76 -40 -79 0 -3 263 -5 585 -5 l585 0 0 295 c0 162 -3 295 -6 295 -3
0 -48 -15 -98 -34 l-92 -35 -184 2 -185 2 -3 1385 -3 1385 38 77 c20 43 35 80
32 82 -4 4 -276 67 -626 144 -24 6 -43 7 -43 4z"/>
<path d="M17675 3873 c-159 -34 -313 -67 -341 -73 l-52 -11 28 -71 27 -72
-145 -295 c-79 -163 -179 -367 -221 -453 -42 -87 -78 -158 -81 -158 -3 0 -105
172 -228 382 l-223 382 30 69 c17 39 30 71 29 72 -4 2 -682 -106 -686 -110 -1
-1 13 -37 33 -80 l35 -77 0 -1447 0 -1447 -35 -73 c-19 -40 -35 -75 -35 -77 0
-2 151 -4 335 -4 l335 0 -40 80 -40 80 2 1022 3 1023 29 -45 c16 -25 125 -200
243 -389 l213 -343 242 487 243 488 3 -1122 2 -1121 -40 -80 -40 -80 340 0
339 0 -39 72 -40 73 0 1659 0 1659 36 64 c19 35 34 67 32 71 -2 4 -133 -20
-293 -55z"/>
<path d="M1666 3574 l34 -75 0 -1509 0 -1508 -35 -74 -35 -73 351 -3 c194 -1
354 0 356 2 3 2 -20 38 -51 79 l-56 74 0 1449 0 1448 40 77 40 77 -27 6 c-27
6 -641 106 -648 106 -2 0 12 -34 31 -76z"/>
<path d="M15335 3473 c-209 -30 -381 -56 -383 -57 -1 -2 12 -35 29 -75 l32
-72 -108 -352 c-59 -193 -110 -357 -114 -364 -3 -6 -63 144 -133 333 l-128
345 35 69 35 70 -32 0 c-18 0 -190 -14 -381 -30 -192 -17 -354 -30 -360 -30
-6 0 25 -37 69 -82 l81 -83 277 -648 276 -648 0 -684 0 -683 -41 -76 -41 -76
346 0 c190 0 346 2 346 5 0 2 -19 35 -42 72 l-43 68 -3 681 -2 682 280 768
281 769 77 78 c66 67 73 77 52 76 -14 -1 -196 -26 -405 -56z"/>
<path d="M2570 3500 c0 -4 16 -42 35 -84 l35 -77 0 -1425 0 -1424 -35 -70
c-19 -38 -35 -74 -35 -80 0 -7 113 -10 336 -10 l336 0 -41 75 -41 74 0 506 0
505 109 0 c199 0 330 28 468 98 149 77 251 180 323 327 70 142 74 177 74 545
0 299 -2 331 -22 401 -73 267 -278 457 -549 509 -183 35 -993 141 -993 130z
m933 -657 c59 -41 95 -98 108 -168 7 -36 9 -142 7 -265 -4 -228 -9 -247 -75
-313 -61 -62 -92 -71 -245 -75 l-138 -4 0 450 0 449 151 -23 c130 -19 157 -26
192 -51z"/>
<path d="M4917 3214 c-219 -53 -441 -273 -525 -519 l-27 -80 -3 -803 c-3 -781
-2 -805 18 -890 63 -267 256 -474 525 -564 59 -19 90 -23 205 -23 145 0 202
10 311 56 233 95 406 300 454 535 14 69 15 179 13 894 l-3 815 -24 70 c-91
270 -295 453 -566 510 -89 19 -300 18 -378 -1z m303 -525 c55 -25 95 -62 123
-114 22 -40 22 -44 25 -760 2 -522 0 -735 -8 -774 -16 -71 -92 -153 -160 -171
-107 -29 -195 -7 -258 64 -63 72 -63 66 -60 872 3 728 3 729 25 770 25 46 82
100 127 120 47 20 134 17 186 -7z"/>
<path d="M12925 3205 c-212 -40 -414 -206 -521 -430 -78 -162 -75 -113 -72
-1027 3 -809 3 -813 25 -871 83 -217 215 -367 408 -462 133 -66 195 -80 355
-79 117 0 145 4 212 26 201 67 359 205 450 394 73 151 71 134 75 687 l4 497
-355 0 -356 0 0 -260 c0 -143 3 -260 8 -260 4 0 43 13 85 30 43 16 80 30 83
30 2 0 4 -105 4 -232 0 -205 -3 -238 -19 -273 -69 -149 -300 -162 -386 -21
l-30 49 -3 746 c-2 534 0 757 8 786 34 120 139 183 256 154 64 -16 147 -96
165 -158 11 -37 10 -56 -4 -127 -10 -46 -20 -90 -23 -99 -5 -13 30 -15 315
-15 177 0 321 4 321 8 0 5 -15 44 -34 88 -23 53 -36 103 -41 154 -43 449 -467
752 -930 665z"/>
<path d="M6058 3092 l60 -77 112 -480 c62 -264 195 -833 297 -1265 l185 -785
-17 -73 c-9 -40 -15 -75 -13 -78 3 -2 153 -3 335 -2 l330 3 -17 73 -17 73 162
672 c224 927 285 1180 360 1492 36 149 70 281 76 294 6 14 33 53 60 87 l50 62
-53 6 c-29 3 -181 8 -337 11 l-284 7 7 -24 c32 -120 32 -122 -18 -338 -155
-664 -317 -1358 -322 -1380 -9 -31 12 -117 -204 845 l-174 769 20 78 20 78
-25 0 c-48 0 -506 20 -579 25 l-73 5 59 -78z"/>
<path d="M11235 3127 c-181 -5 -331 -10 -333 -12 -1 -1 11 -34 28 -74 l31 -72
-107 -347 c-59 -191 -110 -352 -113 -359 -3 -6 -64 145 -134 337 l-128 349 36
70 35 71 -386 2 c-212 2 -387 2 -389 0 -2 -2 30 -36 71 -75 l74 -72 280 -694
280 -694 0 -534 0 -533 -40 -80 -40 -80 345 0 c191 0 344 3 342 8 -2 4 -23 39
-46 79 l-42 72 3 543 3 543 192 485 c105 267 230 584 278 705 l86 220 77 78
77 77 -75 -2 c-41 -1 -223 -6 -405 -11z"/>
<path d="M8684 3060 c-95 -25 -176 -67 -265 -138 -122 -97 -228 -255 -271
-405 l-23 -82 0 -730 0 -730 23 -80 c80 -278 311 -497 582 -551 99 -20 258
-15 355 12 247 67 454 256 532 488 l28 81 3 757 c3 854 5 823 -73 983 -100
207 -306 359 -542 400 -117 20 -261 18 -349 -5z m276 -515 c62 -22 115 -69
144 -127 l26 -52 0 -660 0 -661 -24 -51 c-39 -83 -126 -136 -226 -136 -67 -1
-116 19 -162 64 -72 72 -68 30 -68 782 0 655 1 678 20 714 25 48 38 62 80 94
62 47 138 59 210 33z"/>
</g>
</svg>
